<svg width="359" height="89" viewBox="0 0 359 89" fill="none" xmlns="http://www.w3.org/2000/svg">
<mask id="path-1-outside-1_77_23" maskUnits="userSpaceOnUse" x="0" y="0" width="359" height="89" fill="black">
<rect fill="white" width="359" height="89"/>
<path d="M60.8 81.46H9.70827C8.40351 81.46 7.4421 81.1862 6.82406 80.6387C6.27469 80.0227 6 79.0644 6 77.764V64.0067C6 62.7062 6.20601 61.5769 6.61804 60.6187C7.03007 59.592 7.68246 58.5996 8.57519 57.6413L33.606 27.3547H11.5624C10.2576 27.3547 9.29624 27.0809 8.67819 26.5333C8.12882 25.9173 7.85413 24.9591 7.85413 23.6587V11.236C7.85413 9.93556 8.12882 9.01156 8.67819 8.464C9.29624 7.848 10.2576 7.54 11.5624 7.54H58.9458C60.2506 7.54 61.1777 7.848 61.727 8.464C62.3451 9.01156 62.6541 9.93556 62.6541 11.236V26.5333C62.6541 27.9022 62.4481 29.1 62.0361 30.1267C61.624 31.0849 60.9717 32.0431 60.0789 33.0013L36.1812 61.8507H60.8C62.1047 61.8507 63.0318 62.1587 63.5812 62.7747C64.1992 63.3222 64.5082 64.2462 64.5082 65.5467V77.764C64.5082 79.0644 64.1992 80.0227 63.5812 80.6387C63.0318 81.1862 62.1047 81.46 60.8 81.46ZM49.9842 25.6093C50.4649 24.9933 50.8769 24.4116 51.2203 23.864C51.5636 23.248 51.7353 22.5636 51.7353 21.8107V20.168C51.7353 19.0044 51.4606 18.1489 50.9113 17.6013C50.4306 17.0538 49.6408 16.78 48.5421 16.78H17.1248V17.8067H48.5421C49.0915 17.8067 49.5722 17.9778 49.9842 18.32C50.4649 18.5938 50.7052 19.2098 50.7052 20.168V21.6053C50.7052 22.2898 50.5679 22.8373 50.2932 23.248C50.0872 23.6587 49.7438 24.172 49.2631 24.788L19.0819 63.3907C18.6012 64.0067 18.1892 64.6227 17.8459 65.2387C17.5025 65.7862 17.3308 66.4364 17.3308 67.1893V68.832C17.3308 69.9956 17.5712 70.8511 18.0519 71.3987C18.6012 71.9462 19.4253 72.22 20.5241 72.22H55.2376V71.1933H20.5241C19.9747 71.1933 19.4596 71.0564 18.9789 70.7827C18.5669 70.4404 18.3609 69.7902 18.3609 68.832V67.3947C18.3609 66.7102 18.4639 66.1627 18.6699 65.752C18.9446 65.3413 19.3223 64.828 19.803 64.212L49.9842 25.6093Z"/>
<path d="M127.874 81.46H80.0785C78.7737 81.46 77.8123 81.1862 77.1943 80.6387C76.6449 80.0227 76.3702 79.0644 76.3702 77.764V11.236C76.3702 9.93556 76.6449 9.01156 77.1943 8.464C77.8123 7.848 78.7737 7.54 80.0785 7.54H127.874C129.179 7.54 130.106 7.848 130.655 8.464C131.273 9.01156 131.582 9.93556 131.582 11.236V23.248C131.582 24.5484 131.273 25.5067 130.655 26.1227C130.106 26.6702 129.179 26.944 127.874 26.944H99.4439V34.8493H119.53C120.835 34.8493 121.762 35.1573 122.312 35.7733C122.93 36.3209 123.239 37.2449 123.239 38.5453V49.5307C123.239 50.8311 122.93 51.7893 122.312 52.4053C121.762 52.9529 120.835 53.2267 119.53 53.2267H99.4439V62.056H127.874C129.179 62.056 130.106 62.364 130.655 62.98C131.273 63.5276 131.582 64.4516 131.582 65.752V77.764C131.582 79.0644 131.273 80.0227 130.655 80.6387C130.106 81.1862 129.179 81.46 127.874 81.46ZM122.312 71.1933H88.6281V44.6027H113.968V43.576H88.6281V17.8067H122.312V16.78H87.598V72.22H122.312V71.1933Z"/>
<path d="M157.365 17.6013C157.021 17.2591 156.747 17.0196 156.541 16.8827C156.335 16.7458 156.094 16.6773 155.82 16.6773C155.545 16.6773 155.27 16.78 154.995 16.9853C154.721 17.1907 154.583 17.4987 154.583 17.9093V72.22H155.614V18.1147C155.614 18.0462 155.614 17.9778 155.614 17.9093C155.682 17.8409 155.751 17.8067 155.82 17.8067C155.888 17.8067 155.957 17.8409 156.026 17.9093C156.163 17.9778 156.266 18.0462 156.335 18.1147L195.271 61.6453V72.22H196.301V16.78H195.271V60.1053L157.365 17.6013ZM162.927 81.46H147.476C146.171 81.46 145.21 81.1862 144.592 80.6387C144.042 80.0227 143.768 79.0644 143.768 77.764V11.236C143.768 9.93556 144.042 9.01156 144.592 8.464C145.21 7.848 146.171 7.54 147.476 7.54H158.189C159.493 7.54 160.592 7.74533 161.485 8.156C162.446 8.56667 163.373 9.28533 164.266 10.312L184.25 33.104V11.236C184.25 9.93556 184.524 9.01156 185.074 8.464C185.692 7.848 186.653 7.54 187.958 7.54H203.409C204.714 7.54 205.641 7.848 206.19 8.464C206.808 9.01156 207.117 9.93556 207.117 11.236V77.764C207.117 79.0644 206.808 80.0227 206.19 80.6387C205.641 81.1862 204.714 81.46 203.409 81.46H187.958C186.653 81.46 185.692 81.1862 185.074 80.6387C184.524 80.0227 184.25 79.0644 184.25 77.764V65.136L166.635 43.884V77.764C166.635 79.0644 166.326 80.0227 165.708 80.6387C165.159 81.1862 164.232 81.46 162.927 81.46Z"/>
<path d="M284.16 62.056C284.16 65.2044 283.679 68.0791 282.718 70.68C281.825 73.2124 280.177 75.4027 277.773 77.2507C275.438 79.0302 272.176 80.4333 267.987 81.46C263.867 82.4867 258.614 83 252.227 83C245.841 83 240.553 82.4867 236.364 81.46C232.175 80.4333 228.879 79.0302 226.475 77.2507C224.141 75.4027 222.492 73.2124 221.531 70.68C220.638 68.0791 220.192 65.2044 220.192 62.056V27.0467C220.192 23.8982 220.638 21.0578 221.531 18.5253C222.492 15.9244 224.141 13.7 226.475 11.852C228.879 10.004 232.175 8.56666 236.364 7.54C240.553 6.51333 245.841 6 252.227 6C258.614 6 263.867 6.51333 267.987 7.54C272.176 8.56666 275.438 10.004 277.773 11.852C280.177 13.7 281.825 15.9244 282.718 18.5253C283.679 21.0578 284.16 23.8982 284.16 27.0467V62.056ZM272.932 59.6947V29.408C272.932 25.3013 271.455 21.9818 268.502 19.4493C265.55 16.8484 260.056 15.548 252.021 15.548C243.987 15.548 238.527 16.8484 235.643 19.4493C232.759 21.9818 231.317 25.3013 231.317 29.408V59.6947C231.317 63.8013 232.759 67.1551 235.643 69.756C238.527 72.2884 243.987 73.5547 252.021 73.5547C260.056 73.5547 265.55 72.2884 268.502 69.756C271.455 67.1551 272.932 63.8013 272.932 59.6947ZM232.347 59.6947V29.408C232.347 25.5751 233.72 22.4951 236.467 20.168C239.214 17.7724 244.399 16.5747 252.021 16.5747C259.644 16.5747 264.863 17.7724 267.678 20.168C270.494 22.4951 271.902 25.5751 271.902 29.408V59.6947C271.902 63.5276 270.494 66.6418 267.678 69.0373C264.863 71.3644 259.644 72.528 252.021 72.528C244.399 72.528 239.214 71.3644 236.467 69.0373C233.72 66.6418 232.347 63.5276 232.347 59.6947ZM243.575 58.36C243.575 59.7289 244.09 60.8924 245.12 61.8507C246.15 62.7404 248.519 63.1853 252.227 63.1853C255.936 63.1853 258.305 62.7404 259.335 61.8507C260.365 60.8924 260.88 59.7289 260.88 58.36V30.7427C260.88 29.4422 260.365 28.3471 259.335 27.4573C258.305 26.4991 255.936 26.02 252.227 26.02C248.519 26.02 246.15 26.4991 245.12 27.4573C244.09 28.3471 243.575 29.4422 243.575 30.7427V58.36Z"/>
<path d="M331.677 81.46H299.127C297.822 81.46 296.861 81.1862 296.243 80.6387C295.694 80.0227 295.419 79.0644 295.419 77.764V65.752C295.419 64.4516 295.694 63.5276 296.243 62.98C296.861 62.364 297.822 62.056 299.127 62.056H326.836C327.729 62.056 328.381 61.7822 328.793 61.2347C329.274 60.6187 329.514 59.9 329.514 59.0787C329.514 57.9151 329.274 57.0596 328.793 56.512C328.381 55.9644 327.729 55.6564 326.836 55.588L311.385 53.432C306.578 52.7476 302.698 51.1733 299.745 48.7093C296.861 46.2453 295.419 42.1387 295.419 36.3893V25.6093C295.419 19.7916 297.307 15.3427 301.084 12.2627C304.861 9.11422 310.08 7.54 316.741 7.54H345.583C346.888 7.54 347.815 7.848 348.365 8.464C348.983 9.01156 349.292 9.93556 349.292 11.236V23.4533C349.292 24.7538 348.983 25.712 348.365 26.328C347.815 26.8756 346.888 27.1493 345.583 27.1493H321.583C320.69 27.1493 320.003 27.4573 319.523 28.0733C319.042 28.6209 318.802 29.3396 318.802 30.2293C318.802 31.1191 319.042 31.872 319.523 32.488C320.003 33.104 320.69 33.4462 321.583 33.5147L336.931 35.568C341.738 36.2524 345.618 37.8267 348.571 40.2907C351.524 42.7547 353 46.8613 353 52.6107V63.3907C353 69.2084 351.077 73.6916 347.232 76.84C343.455 79.92 338.27 81.46 331.677 81.46ZM340.021 16.78H317.153C313.995 16.78 311.454 17.6698 309.531 19.4493C307.608 21.1604 306.647 23.3849 306.647 26.1227V34.5413C306.647 37.3476 307.196 39.2982 308.295 40.3933C309.462 41.42 310.939 42.1044 312.724 42.4467L334.459 46.8613C336.381 47.272 337.892 48.0933 338.991 49.3253C340.158 50.4889 340.742 52.6791 340.742 55.896V61.8507C340.742 64.5884 339.781 66.8471 337.858 68.6267C336.004 70.3378 333.497 71.1933 330.338 71.1933H304.689V72.22H330.338C333.841 72.22 336.622 71.2618 338.682 69.3453C340.742 67.3604 341.772 64.8622 341.772 61.8507V55.896C341.772 52.3369 341.085 49.8729 339.712 48.504C338.407 47.1351 336.725 46.2453 334.665 45.8347L312.93 41.42C311.351 41.1462 310.08 40.5302 309.119 39.572C308.157 38.6138 307.677 36.9369 307.677 34.5413V26.1227C307.677 23.7271 308.535 21.7422 310.252 20.168C311.969 18.5938 314.269 17.8067 317.153 17.8067H340.021V16.78Z"/>
</mask>
<path d="M60.8 81.46H9.70827C8.40351 81.46 7.4421 81.1862 6.82406 80.6387C6.27469 80.0227 6 79.0644 6 77.764V64.0067C6 62.7062 6.20601 61.5769 6.61804 60.6187C7.03007 59.592 7.68246 58.5996 8.57519 57.6413L33.606 27.3547H11.5624C10.2576 27.3547 9.29624 27.0809 8.67819 26.5333C8.12882 25.9173 7.85413 24.9591 7.85413 23.6587V11.236C7.85413 9.93556 8.12882 9.01156 8.67819 8.464C9.29624 7.848 10.2576 7.54 11.5624 7.54H58.9458C60.2506 7.54 61.1777 7.848 61.727 8.464C62.3451 9.01156 62.6541 9.93556 62.6541 11.236V26.5333C62.6541 27.9022 62.4481 29.1 62.0361 30.1267C61.624 31.0849 60.9717 32.0431 60.0789 33.0013L36.1812 61.8507H60.8C62.1047 61.8507 63.0318 62.1587 63.5812 62.7747C64.1992 63.3222 64.5082 64.2462 64.5082 65.5467V77.764C64.5082 79.0644 64.1992 80.0227 63.5812 80.6387C63.0318 81.1862 62.1047 81.46 60.8 81.46ZM49.9842 25.6093C50.4649 24.9933 50.8769 24.4116 51.2203 23.864C51.5636 23.248 51.7353 22.5636 51.7353 21.8107V20.168C51.7353 19.0044 51.4606 18.1489 50.9113 17.6013C50.4306 17.0538 49.6408 16.78 48.5421 16.78H17.1248V17.8067H48.5421C49.0915 17.8067 49.5722 17.9778 49.9842 18.32C50.4649 18.5938 50.7052 19.2098 50.7052 20.168V21.6053C50.7052 22.2898 50.5679 22.8373 50.2932 23.248C50.0872 23.6587 49.7438 24.172 49.2631 24.788L19.0819 63.3907C18.6012 64.0067 18.1892 64.6227 17.8459 65.2387C17.5025 65.7862 17.3308 66.4364 17.3308 67.1893V68.832C17.3308 69.9956 17.5712 70.8511 18.0519 71.3987C18.6012 71.9462 19.4253 72.22 20.5241 72.22H55.2376V71.1933H20.5241C19.9747 71.1933 19.4596 71.0564 18.9789 70.7827C18.5669 70.4404 18.3609 69.7902 18.3609 68.832V67.3947C18.3609 66.7102 18.4639 66.1627 18.6699 65.752C18.9446 65.3413 19.3223 64.828 19.803 64.212L49.9842 25.6093Z" fill="white"/>
<path d="M127.874 81.46H80.0785C78.7737 81.46 77.8123 81.1862 77.1943 80.6387C76.6449 80.0227 76.3702 79.0644 76.3702 77.764V11.236C76.3702 9.93556 76.6449 9.01156 77.1943 8.464C77.8123 7.848 78.7737 7.54 80.0785 7.54H127.874C129.179 7.54 130.106 7.848 130.655 8.464C131.273 9.01156 131.582 9.93556 131.582 11.236V23.248C131.582 24.5484 131.273 25.5067 130.655 26.1227C130.106 26.6702 129.179 26.944 127.874 26.944H99.4439V34.8493H119.53C120.835 34.8493 121.762 35.1573 122.312 35.7733C122.93 36.3209 123.239 37.2449 123.239 38.5453V49.5307C123.239 50.8311 122.93 51.7893 122.312 52.4053C121.762 52.9529 120.835 53.2267 119.53 53.2267H99.4439V62.056H127.874C129.179 62.056 130.106 62.364 130.655 62.98C131.273 63.5276 131.582 64.4516 131.582 65.752V77.764C131.582 79.0644 131.273 80.0227 130.655 80.6387C130.106 81.1862 129.179 81.46 127.874 81.46ZM122.312 71.1933H88.6281V44.6027H113.968V43.576H88.6281V17.8067H122.312V16.78H87.598V72.22H122.312V71.1933Z" fill="white"/>
<path d="M157.365 17.6013C157.021 17.2591 156.747 17.0196 156.541 16.8827C156.335 16.7458 156.094 16.6773 155.82 16.6773C155.545 16.6773 155.27 16.78 154.995 16.9853C154.721 17.1907 154.583 17.4987 154.583 17.9093V72.22H155.614V18.1147C155.614 18.0462 155.614 17.9778 155.614 17.9093C155.682 17.8409 155.751 17.8067 155.82 17.8067C155.888 17.8067 155.957 17.8409 156.026 17.9093C156.163 17.9778 156.266 18.0462 156.335 18.1147L195.271 61.6453V72.22H196.301V16.78H195.271V60.1053L157.365 17.6013ZM162.927 81.46H147.476C146.171 81.46 145.21 81.1862 144.592 80.6387C144.042 80.0227 143.768 79.0644 143.768 77.764V11.236C143.768 9.93556 144.042 9.01156 144.592 8.464C145.21 7.848 146.171 7.54 147.476 7.54H158.189C159.493 7.54 160.592 7.74533 161.485 8.156C162.446 8.56667 163.373 9.28533 164.266 10.312L184.25 33.104V11.236C184.25 9.93556 184.524 9.01156 185.074 8.464C185.692 7.848 186.653 7.54 187.958 7.54H203.409C204.714 7.54 205.641 7.848 206.19 8.464C206.808 9.01156 207.117 9.93556 207.117 11.236V77.764C207.117 79.0644 206.808 80.0227 206.19 80.6387C205.641 81.1862 204.714 81.46 203.409 81.46H187.958C186.653 81.46 185.692 81.1862 185.074 80.6387C184.524 80.0227 184.25 79.0644 184.25 77.764V65.136L166.635 43.884V77.764C166.635 79.0644 166.326 80.0227 165.708 80.6387C165.159 81.1862 164.232 81.46 162.927 81.46Z" fill="white"/>
<path d="M284.16 62.056C284.16 65.2044 283.679 68.0791 282.718 70.68C281.825 73.2124 280.177 75.4027 277.773 77.2507C275.438 79.0302 272.176 80.4333 267.987 81.46C263.867 82.4867 258.614 83 252.227 83C245.841 83 240.553 82.4867 236.364 81.46C232.175 80.4333 228.879 79.0302 226.475 77.2507C224.141 75.4027 222.492 73.2124 221.531 70.68C220.638 68.0791 220.192 65.2044 220.192 62.056V27.0467C220.192 23.8982 220.638 21.0578 221.531 18.5253C222.492 15.9244 224.141 13.7 226.475 11.852C228.879 10.004 232.175 8.56666 236.364 7.54C240.553 6.51333 245.841 6 252.227 6C258.614 6 263.867 6.51333 267.987 7.54C272.176 8.56666 275.438 10.004 277.773 11.852C280.177 13.7 281.825 15.9244 282.718 18.5253C283.679 21.0578 284.16 23.8982 284.16 27.0467V62.056ZM272.932 59.6947V29.408C272.932 25.3013 271.455 21.9818 268.502 19.4493C265.55 16.8484 260.056 15.548 252.021 15.548C243.987 15.548 238.527 16.8484 235.643 19.4493C232.759 21.9818 231.317 25.3013 231.317 29.408V59.6947C231.317 63.8013 232.759 67.1551 235.643 69.756C238.527 72.2884 243.987 73.5547 252.021 73.5547C260.056 73.5547 265.55 72.2884 268.502 69.756C271.455 67.1551 272.932 63.8013 272.932 59.6947ZM232.347 59.6947V29.408C232.347 25.5751 233.72 22.4951 236.467 20.168C239.214 17.7724 244.399 16.5747 252.021 16.5747C259.644 16.5747 264.863 17.7724 267.678 20.168C270.494 22.4951 271.902 25.5751 271.902 29.408V59.6947C271.902 63.5276 270.494 66.6418 267.678 69.0373C264.863 71.3644 259.644 72.528 252.021 72.528C244.399 72.528 239.214 71.3644 236.467 69.0373C233.72 66.6418 232.347 63.5276 232.347 59.6947ZM243.575 58.36C243.575 59.7289 244.09 60.8924 245.12 61.8507C246.15 62.7404 248.519 63.1853 252.227 63.1853C255.936 63.1853 258.305 62.7404 259.335 61.8507C260.365 60.8924 260.88 59.7289 260.88 58.36V30.7427C260.88 29.4422 260.365 28.3471 259.335 27.4573C258.305 26.4991 255.936 26.02 252.227 26.02C248.519 26.02 246.15 26.4991 245.12 27.4573C244.09 28.3471 243.575 29.4422 243.575 30.7427V58.36Z" fill="white"/>
<path d="M331.677 81.46H299.127C297.822 81.46 296.861 81.1862 296.243 80.6387C295.694 80.0227 295.419 79.0644 295.419 77.764V65.752C295.419 64.4516 295.694 63.5276 296.243 62.98C296.861 62.364 297.822 62.056 299.127 62.056H326.836C327.729 62.056 328.381 61.7822 328.793 61.2347C329.274 60.6187 329.514 59.9 329.514 59.0787C329.514 57.9151 329.274 57.0596 328.793 56.512C328.381 55.9644 327.729 55.6564 326.836 55.588L311.385 53.432C306.578 52.7476 302.698 51.1733 299.745 48.7093C296.861 46.2453 295.419 42.1387 295.419 36.3893V25.6093C295.419 19.7916 297.307 15.3427 301.084 12.2627C304.861 9.11422 310.08 7.54 316.741 7.54H345.583C346.888 7.54 347.815 7.848 348.365 8.464C348.983 9.01156 349.292 9.93556 349.292 11.236V23.4533C349.292 24.7538 348.983 25.712 348.365 26.328C347.815 26.8756 346.888 27.1493 345.583 27.1493H321.583C320.69 27.1493 320.003 27.4573 319.523 28.0733C319.042 28.6209 318.802 29.3396 318.802 30.2293C318.802 31.1191 319.042 31.872 319.523 32.488C320.003 33.104 320.69 33.4462 321.583 33.5147L336.931 35.568C341.738 36.2524 345.618 37.8267 348.571 40.2907C351.524 42.7547 353 46.8613 353 52.6107V63.3907C353 69.2084 351.077 73.6916 347.232 76.84C343.455 79.92 338.27 81.46 331.677 81.46ZM340.021 16.78H317.153C313.995 16.78 311.454 17.6698 309.531 19.4493C307.608 21.1604 306.647 23.3849 306.647 26.1227V34.5413C306.647 37.3476 307.196 39.2982 308.295 40.3933C309.462 41.42 310.939 42.1044 312.724 42.4467L334.459 46.8613C336.381 47.272 337.892 48.0933 338.991 49.3253C340.158 50.4889 340.742 52.6791 340.742 55.896V61.8507C340.742 64.5884 339.781 66.8471 337.858 68.6267C336.004 70.3378 333.497 71.1933 330.338 71.1933H304.689V72.22H330.338C333.841 72.22 336.622 71.2618 338.682 69.3453C340.742 67.3604 341.772 64.8622 341.772 61.8507V55.896C341.772 52.3369 341.085 49.8729 339.712 48.504C338.407 47.1351 336.725 46.2453 334.665 45.8347L312.93 41.42C311.351 41.1462 310.08 40.5302 309.119 39.572C308.157 38.6138 307.677 36.9369 307.677 34.5413V26.1227C307.677 23.7271 308.535 21.7422 310.252 20.168C311.969 18.5938 314.269 17.8067 317.153 17.8067H340.021V16.78Z" fill="white"/>
<path d="M60.8 81.46H9.70827C8.40351 81.46 7.4421 81.1862 6.82406 80.6387C6.27469 80.0227 6 79.0644 6 77.764V64.0067C6 62.7062 6.20601 61.5769 6.61804 60.6187C7.03007 59.592 7.68246 58.5996 8.57519 57.6413L33.606 27.3547H11.5624C10.2576 27.3547 9.29624 27.0809 8.67819 26.5333C8.12882 25.9173 7.85413 24.9591 7.85413 23.6587V11.236C7.85413 9.93556 8.12882 9.01156 8.67819 8.464C9.29624 7.848 10.2576 7.54 11.5624 7.54H58.9458C60.2506 7.54 61.1777 7.848 61.727 8.464C62.3451 9.01156 62.6541 9.93556 62.6541 11.236V26.5333C62.6541 27.9022 62.4481 29.1 62.0361 30.1267C61.624 31.0849 60.9717 32.0431 60.0789 33.0013L36.1812 61.8507H60.8C62.1047 61.8507 63.0318 62.1587 63.5812 62.7747C64.1992 63.3222 64.5082 64.2462 64.5082 65.5467V77.764C64.5082 79.0644 64.1992 80.0227 63.5812 80.6387C63.0318 81.1862 62.1047 81.46 60.8 81.46ZM49.9842 25.6093C50.4649 24.9933 50.8769 24.4116 51.2203 23.864C51.5636 23.248 51.7353 22.5636 51.7353 21.8107V20.168C51.7353 19.0044 51.4606 18.1489 50.9113 17.6013C50.4306 17.0538 49.6408 16.78 48.5421 16.78H17.1248V17.8067H48.5421C49.0915 17.8067 49.5722 17.9778 49.9842 18.32C50.4649 18.5938 50.7052 19.2098 50.7052 20.168V21.6053C50.7052 22.2898 50.5679 22.8373 50.2932 23.248C50.0872 23.6587 49.7438 24.172 49.2631 24.788L19.0819 63.3907C18.6012 64.0067 18.1892 64.6227 17.8459 65.2387C17.5025 65.7862 17.3308 66.4364 17.3308 67.1893V68.832C17.3308 69.9956 17.5712 70.8511 18.0519 71.3987C18.6012 71.9462 19.4253 72.22 20.5241 72.22H55.2376V71.1933H20.5241C19.9747 71.1933 19.4596 71.0564 18.9789 70.7827C18.5669 70.4404 18.3609 69.7902 18.3609 68.832V67.3947C18.3609 66.7102 18.4639 66.1627 18.6699 65.752C18.9446 65.3413 19.3223 64.828 19.803 64.212L49.9842 25.6093Z" stroke="black" stroke-width="11.7551" mask="url(#path-1-outside-1_77_23)"/>
<path d="M127.874 81.46H80.0785C78.7737 81.46 77.8123 81.1862 77.1943 80.6387C76.6449 80.0227 76.3702 79.0644 76.3702 77.764V11.236C76.3702 9.93556 76.6449 9.01156 77.1943 8.464C77.8123 7.848 78.7737 7.54 80.0785 7.54H127.874C129.179 7.54 130.106 7.848 130.655 8.464C131.273 9.01156 131.582 9.93556 131.582 11.236V23.248C131.582 24.5484 131.273 25.5067 130.655 26.1227C130.106 26.6702 129.179 26.944 127.874 26.944H99.4439V34.8493H119.53C120.835 34.8493 121.762 35.1573 122.312 35.7733C122.93 36.3209 123.239 37.2449 123.239 38.5453V49.5307C123.239 50.8311 122.93 51.7893 122.312 52.4053C121.762 52.9529 120.835 53.2267 119.53 53.2267H99.4439V62.056H127.874C129.179 62.056 130.106 62.364 130.655 62.98C131.273 63.5276 131.582 64.4516 131.582 65.752V77.764C131.582 79.0644 131.273 80.0227 130.655 80.6387C130.106 81.1862 129.179 81.46 127.874 81.46ZM122.312 71.1933H88.6281V44.6027H113.968V43.576H88.6281V17.8067H122.312V16.78H87.598V72.22H122.312V71.1933Z" stroke="black" stroke-width="11.7551" mask="url(#path-1-outside-1_77_23)"/>
<path d="M157.365 17.6013C157.021 17.2591 156.747 17.0196 156.541 16.8827C156.335 16.7458 156.094 16.6773 155.82 16.6773C155.545 16.6773 155.27 16.78 154.995 16.9853C154.721 17.1907 154.583 17.4987 154.583 17.9093V72.22H155.614V18.1147C155.614 18.0462 155.614 17.9778 155.614 17.9093C155.682 17.8409 155.751 17.8067 155.82 17.8067C155.888 17.8067 155.957 17.8409 156.026 17.9093C156.163 17.9778 156.266 18.0462 156.335 18.1147L195.271 61.6453V72.22H196.301V16.78H195.271V60.1053L157.365 17.6013ZM162.927 81.46H147.476C146.171 81.46 145.21 81.1862 144.592 80.6387C144.042 80.0227 143.768 79.0644 143.768 77.764V11.236C143.768 9.93556 144.042 9.01156 144.592 8.464C145.21 7.848 146.171 7.54 147.476 7.54H158.189C159.493 7.54 160.592 7.74533 161.485 8.156C162.446 8.56667 163.373 9.28533 164.266 10.312L184.25 33.104V11.236C184.25 9.93556 184.524 9.01156 185.074 8.464C185.692 7.848 186.653 7.54 187.958 7.54H203.409C204.714 7.54 205.641 7.848 206.19 8.464C206.808 9.01156 207.117 9.93556 207.117 11.236V77.764C207.117 79.0644 206.808 80.0227 206.19 80.6387C205.641 81.1862 204.714 81.46 203.409 81.46H187.958C186.653 81.46 185.692 81.1862 185.074 80.6387C184.524 80.0227 184.25 79.0644 184.25 77.764V65.136L166.635 43.884V77.764C166.635 79.0644 166.326 80.0227 165.708 80.6387C165.159 81.1862 164.232 81.46 162.927 81.46Z" stroke="black" stroke-width="11.7551" mask="url(#path-1-outside-1_77_23)"/>
<path d="M284.16 62.056C284.16 65.2044 283.679 68.0791 282.718 70.68C281.825 73.2124 280.177 75.4027 277.773 77.2507C275.438 79.0302 272.176 80.4333 267.987 81.46C263.867 82.4867 258.614 83 252.227 83C245.841 83 240.553 82.4867 236.364 81.46C232.175 80.4333 228.879 79.0302 226.475 77.2507C224.141 75.4027 222.492 73.2124 221.531 70.68C220.638 68.0791 220.192 65.2044 220.192 62.056V27.0467C220.192 23.8982 220.638 21.0578 221.531 18.5253C222.492 15.9244 224.141 13.7 226.475 11.852C228.879 10.004 232.175 8.56666 236.364 7.54C240.553 6.51333 245.841 6 252.227 6C258.614 6 263.867 6.51333 267.987 7.54C272.176 8.56666 275.438 10.004 277.773 11.852C280.177 13.7 281.825 15.9244 282.718 18.5253C283.679 21.0578 284.16 23.8982 284.16 27.0467V62.056ZM272.932 59.6947V29.408C272.932 25.3013 271.455 21.9818 268.502 19.4493C265.55 16.8484 260.056 15.548 252.021 15.548C243.987 15.548 238.527 16.8484 235.643 19.4493C232.759 21.9818 231.317 25.3013 231.317 29.408V59.6947C231.317 63.8013 232.759 67.1551 235.643 69.756C238.527 72.2884 243.987 73.5547 252.021 73.5547C260.056 73.5547 265.55 72.2884 268.502 69.756C271.455 67.1551 272.932 63.8013 272.932 59.6947ZM232.347 59.6947V29.408C232.347 25.5751 233.72 22.4951 236.467 20.168C239.214 17.7724 244.399 16.5747 252.021 16.5747C259.644 16.5747 264.863 17.7724 267.678 20.168C270.494 22.4951 271.902 25.5751 271.902 29.408V59.6947C271.902 63.5276 270.494 66.6418 267.678 69.0373C264.863 71.3644 259.644 72.528 252.021 72.528C244.399 72.528 239.214 71.3644 236.467 69.0373C233.72 66.6418 232.347 63.5276 232.347 59.6947ZM243.575 58.36C243.575 59.7289 244.09 60.8924 245.12 61.8507C246.15 62.7404 248.519 63.1853 252.227 63.1853C255.936 63.1853 258.305 62.7404 259.335 61.8507C260.365 60.8924 260.88 59.7289 260.88 58.36V30.7427C260.88 29.4422 260.365 28.3471 259.335 27.4573C258.305 26.4991 255.936 26.02 252.227 26.02C248.519 26.02 246.15 26.4991 245.12 27.4573C244.09 28.3471 243.575 29.4422 243.575 30.7427V58.36Z" stroke="black" stroke-width="11.7551" mask="url(#path-1-outside-1_77_23)"/>
<path d="M331.677 81.46H299.127C297.822 81.46 296.861 81.1862 296.243 80.6387C295.694 80.0227 295.419 79.0644 295.419 77.764V65.752C295.419 64.4516 295.694 63.5276 296.243 62.98C296.861 62.364 297.822 62.056 299.127 62.056H326.836C327.729 62.056 328.381 61.7822 328.793 61.2347C329.274 60.6187 329.514 59.9 329.514 59.0787C329.514 57.9151 329.274 57.0596 328.793 56.512C328.381 55.9644 327.729 55.6564 326.836 55.588L311.385 53.432C306.578 52.7476 302.698 51.1733 299.745 48.7093C296.861 46.2453 295.419 42.1387 295.419 36.3893V25.6093C295.419 19.7916 297.307 15.3427 301.084 12.2627C304.861 9.11422 310.08 7.54 316.741 7.54H345.583C346.888 7.54 347.815 7.848 348.365 8.464C348.983 9.01156 349.292 9.93556 349.292 11.236V23.4533C349.292 24.7538 348.983 25.712 348.365 26.328C347.815 26.8756 346.888 27.1493 345.583 27.1493H321.583C320.69 27.1493 320.003 27.4573 319.523 28.0733C319.042 28.6209 318.802 29.3396 318.802 30.2293C318.802 31.1191 319.042 31.872 319.523 32.488C320.003 33.104 320.69 33.4462 321.583 33.5147L336.931 35.568C341.738 36.2524 345.618 37.8267 348.571 40.2907C351.524 42.7547 353 46.8613 353 52.6107V63.3907C353 69.2084 351.077 73.6916 347.232 76.84C343.455 79.92 338.27 81.46 331.677 81.46ZM340.021 16.78H317.153C313.995 16.78 311.454 17.6698 309.531 19.4493C307.608 21.1604 306.647 23.3849 306.647 26.1227V34.5413C306.647 37.3476 307.196 39.2982 308.295 40.3933C309.462 41.42 310.939 42.1044 312.724 42.4467L334.459 46.8613C336.381 47.272 337.892 48.0933 338.991 49.3253C340.158 50.4889 340.742 52.6791 340.742 55.896V61.8507C340.742 64.5884 339.781 66.8471 337.858 68.6267C336.004 70.3378 333.497 71.1933 330.338 71.1933H304.689V72.22H330.338C333.841 72.22 336.622 71.2618 338.682 69.3453C340.742 67.3604 341.772 64.8622 341.772 61.8507V55.896C341.772 52.3369 341.085 49.8729 339.712 48.504C338.407 47.1351 336.725 46.2453 334.665 45.8347L312.93 41.42C311.351 41.1462 310.08 40.5302 309.119 39.572C308.157 38.6138 307.677 36.9369 307.677 34.5413V26.1227C307.677 23.7271 308.535 21.7422 310.252 20.168C311.969 18.5938 314.269 17.8067 317.153 17.8067H340.021V16.78Z" stroke="black" stroke-width="11.7551" mask="url(#path-1-outside-1_77_23)"/>
</svg>
